<svg width="34.000000" height="34.000000" viewBox="0 0 34 34" fill="none" xmlns="http://www.w3.org/2000/svg" xmlns:xlink="http://www.w3.org/1999/xlink">
	<desc>
			Created with Pixso.
	</desc>
	<defs/>
	<path id="" d="M22.92 13.92C22.92 18.89 18.89 22.92 13.92 22.92C8.96 22.92 4.92 18.89 4.92 13.92C4.92 8.96 8.96 4.92 13.92 4.92C18.89 4.92 22.92 8.96 22.92 13.92ZM33.21 30.64C33.21 29.95 32.93 29.29 32.47 28.83L25.58 21.94C27.2 19.59 28.07 16.78 28.07 13.92C28.07 6.11 21.74 -0.22 13.92 -0.22C6.11 -0.22 -0.22 6.11 -0.22 13.92C-0.22 21.74 6.11 28.07 13.92 28.07C16.78 28.07 19.59 27.2 21.94 25.58L28.83 32.45C29.29 32.93 29.95 33.21 30.64 33.21C32.04 33.21 33.21 32.04 33.21 30.64Z" fill="#FFFFFF" fill-opacity="1.000000" fill-rule="nonzero"/>
</svg>
