<svg width="14.000000" height="17.000000" viewBox="0 0 14 17" fill="none" xmlns="http://www.w3.org/2000/svg" xmlns:xlink="http://www.w3.org/1999/xlink">
	<desc>
			Created with Pixso.
	</desc>
	<defs/>
	<path id="Vector" d="M-0.23 7.93C-0.23 6.94 -0.14 6.32 1.91 4.8C3.61 3.54 9.07 -0.77 9.07 -0.77L9.07 6.42L13.22 6.42L13.22 16.76L1.07 16.76C0.36 16.76 -0.23 16.18 -0.23 15.47L-0.23 7.93L-0.23 7.93Z" fill="#3E9CDC" fill-opacity="1.000000" fill-rule="evenodd"/>
	<path id="Vector" d="M9.07 6.42L9.07 10.58L1.45 15.73L11.08 12.62L11.08 6.42L9.07 6.42Z" fill="#000000" fill-opacity="0.200000" fill-rule="evenodd"/>
	<path id="Vector" d="M5.59 6.2C6.03 5.68 6.68 5.49 7.04 5.79C7.4 6.08 7.33 6.75 6.88 7.28C6.43 7.81 5.78 7.99 5.43 7.69C5.07 7.4 5.14 6.73 5.59 6.2L5.59 6.2Z" fill="#231F20" fill-opacity="1.000000" fill-rule="evenodd"/>
</svg>
